<svg width="309" height="122" viewBox="0 0 309 122" fill="none" xmlns="http://www.w3.org/2000/svg">
<g clip-path="url(#clip0_1564_90985)">
<path d="M234.503 42.51L199.679 119.567C198.791 121.531 196.549 122.489 194.516 121.773L132.335 99.87C130.484 99.218 129.343 97.36 129.598 95.414L138.362 28.586C138.66 26.311 140.748 24.709 143.023 25.01L231.264 36.684C234.024 37.049 235.65 39.973 234.503 42.51Z" fill="#FB4F4F"/>
<path d="M215.139 94.1541L220.666 6.30107C220.824 3.78407 223.171 1.98907 225.642 2.49407L305.328 18.7941C307.855 19.3111 309.304 21.9821 308.359 24.3821L275.942 106.758C275.203 108.636 273.221 109.71 271.245 109.305L218.448 98.4821C216.421 98.0661 215.009 96.2201 215.139 94.1541Z" fill="#32A853"/>
<path d="M215.781 83.963L234.501 42.539C235.647 40.002 234.022 37.078 231.262 36.713L218.856 35.072L215.781 83.963Z" fill="#26803F"/>
<path d="M3.11485 20.8339L83.1768 0.13393C85.6999 -0.51807 88.1928 1.28693 88.3598 3.88793L94.0919 93.1889C94.2198 95.1769 92.9168 96.9759 90.9878 97.4749L43.4398 109.767C41.5108 110.266 39.4989 109.324 38.6469 107.522L0.400851 26.6289C-0.713149 24.2729 0.591851 21.4859 3.11485 20.8339Z" fill="#0D68FF"/>
<path d="M76.6479 18.0591L18.0879 33.2001L21.3299 45.7371L42.6359 40.2291L55.6719 90.6461L71.6199 86.5231L58.5839 36.1051L79.8899 30.5971L76.6479 18.0591Z" fill="white"/>
<path d="M147.673 21.9391L151.82 85.2151C151.999 87.9491 149.528 90.1041 146.844 89.5541L79.5354 75.7701C77.1564 75.2831 75.7014 72.8671 76.3834 70.5361L90.8734 21.0441C91.3914 19.2751 93.0144 18.0591 94.8584 18.0591H143.53C145.717 18.0591 147.53 19.7561 147.673 21.9391Z" fill="#FBB900"/>
<path d="M130.797 86.268L146.845 89.555C149.529 90.105 152 87.95 151.821 85.216L147.917 25.658L143.022 25.01C140.747 24.709 138.659 26.311 138.361 28.586L130.797 86.268Z" fill="#FFA200"/>
<path d="M193.501 38.433C183.321 35.286 164.718 38.287 156.279 41.929L160.398 104.78L175.895 103.764L174.669 85.293C174.669 85.293 186.731 87.002 196.234 82.621C205.217 78.48 210.817 70.158 210.117 59.482C209.479 49.757 203.133 41.411 193.501 38.433ZM190.302 71.029C185.204 74.241 177.891 73.472 173.878 73.008L172.427 50.868C172.427 50.868 181.929 47.857 188.382 50.377C192.677 52.054 195.513 55.914 195.806 60.393C196.09 64.699 194.104 68.634 190.302 71.029Z" fill="white"/>
<path d="M235.576 81.5309C244.57 87.2439 263.307 89.2409 272.408 87.9459L284.961 26.2239L269.742 23.1289L266.068 41.2719C266.068 41.2719 254.88 36.4509 244.559 38.1789C234.803 39.8119 227.212 46.3689 225.08 56.8529C223.138 66.4029 227.066 76.1249 235.576 81.5309ZM247.234 50.9229C252.997 49.1649 259.851 51.8289 263.6 53.3319L259.178 75.0749C259.178 75.0749 249.218 75.4809 243.655 71.3539C239.952 68.6069 238.231 64.1369 239.126 59.7389C239.986 55.5089 242.936 52.2339 247.234 50.9229Z" fill="white"/>
<path d="M79.5368 75.7379L93.1528 78.5259L89.7158 24.9729L76.3858 70.5029C75.7028 72.8339 77.1578 75.2499 79.5368 75.7379Z" fill="#FFA600"/>
<path d="M123.248 27.548C110.048 24.924 99.9915 26.703 97.7485 27.173L98.1895 37.171C107.487 36.209 119.059 36.087 122.848 40.678C124.475 42.649 123.726 45.16 123.726 45.16C123.726 45.16 107.813 41.23 97.7455 46.87C96.8275 47.384 91.4205 50.051 90.5255 56.877C89.8325 62.158 92.4265 66.997 96.7505 69.661C110.772 78.3 135.812 74.583 135.812 74.583L139.365 47.501C141.129 36.42 136.008 30.084 123.248 27.548ZM113.56 64.449C105.163 63.347 104.782 59.311 105.006 57.604C105.38 54.755 107.741 52.492 114.089 52.642C118.864 52.755 122.968 53.689 122.968 53.689L121.599 64.244C121.599 64.245 118.443 65.09 113.56 64.449Z" fill="white"/>
</g>
<defs>
<clipPath id="clip0_1564_90985">
<rect width="308.65" height="121.773" fill="white"/>
</clipPath>
</defs>
</svg>
